<svg width="28" height="21" viewBox="0 0 28 21" fill="none" xmlns="http://www.w3.org/2000/svg">
<path fill-rule="evenodd" clip-rule="evenodd" d="M15.6141 20.9522C17.0515 20.6809 18.1461 19.2877 18.1461 17.6099C18.1461 15.7376 16.783 14.2198 15.1016 14.2198C14.8534 14.2198 14.612 14.2529 14.381 14.3153C14.0547 12.8345 12.8546 11.736 11.4242 11.736C10.5745 11.736 9.80616 12.1235 9.25389 12.7486C8.70163 12.1235 7.93326 11.736 7.0836 11.736C5.62112 11.736 4.39949 12.8842 4.10617 14.4153C3.78372 14.2887 3.43645 14.2198 3.07458 14.2198C1.37654 14.2198 0 15.7376 0 17.6099C0 19.4822 1.37654 21 3.07458 21H15.1016H15.6141V20.9522Z" fill="#117BCD"/>
<path fill-rule="evenodd" clip-rule="evenodd" d="M24.6141 9.21623C26.0515 8.94494 27.1461 7.55178 27.1461 5.87394C27.1461 4.00164 25.783 2.48384 24.1016 2.48384C23.8534 2.48384 23.612 2.51693 23.381 2.57937C23.0547 1.09856 21.8546 0 20.4242 0C19.5745 0 18.8062 0.387585 18.2539 1.01264C17.7016 0.387585 16.9333 0 16.0836 0C14.6211 0 13.3995 1.14829 13.1062 2.67937C12.7837 2.55277 12.4365 2.48384 12.0746 2.48384C10.3765 2.48384 9 4.00164 9 5.87394C9 7.74625 10.3765 9.26405 12.0746 9.26405H24.1016H24.6141V9.21623Z" fill="#117BCD"/>
</svg>
