<svg width="30" height="30" viewBox="0 0 30 30" fill="none" xmlns="http://www.w3.org/2000/svg">
<path d="M5.37 16.18C6.02 16.15 6.57 15.9 7.02 15.43C7.47 14.96 7.7 14.4 7.7 13.75C7.7 14.4 7.92 14.96 8.37 15.43C8.82 15.9 9.37 16.15 10.02 16.18C9.37 16.21 8.82 16.46 8.37 16.93C7.92 17.4 7.7 17.96 7.7 18.61C7.7 17.96 7.48 17.4 7.02 16.93C6.57 16.46 6.02 16.21 5.37 16.18ZM7.7 8.98C8.96 8.92 10.03 8.43 10.91 7.51C11.79 6.59 12.23 5.5 12.23 4.23C12.23 5.5 12.67 6.59 13.55 7.51C14.43 8.43 15.5 8.91 16.77 8.98C15.94 9.02 15.18 9.25 14.48 9.69C13.79 10.12 13.24 10.7 12.83 11.42C12.43 12.14 12.23 12.91 12.23 13.75C12.23 12.48 11.79 11.38 10.91 10.46C10.03 9.53 8.96 9.04 7.7 8.98ZM11.02 19.75C11.97 19.71 12.78 19.34 13.44 18.65C14.1 17.96 14.43 17.14 14.43 16.18C14.43 17.14 14.76 17.96 15.42 18.65C16.08 19.34 16.88 19.71 17.83 19.75C16.88 19.79 16.08 20.16 15.42 20.85C14.76 21.54 14.43 22.36 14.43 23.32C14.43 22.36 14.1 21.54 13.44 20.85C12.77 20.16 11.97 19.8 11.02 19.75ZM17.83 15.01C18.78 14.97 19.58 14.6 20.24 13.91C20.9 13.22 21.22 12.4 21.22 11.43C21.22 12.39 21.55 13.21 22.21 13.9C22.87 14.59 23.68 14.96 24.63 15C23.68 15.04 22.87 15.41 22.21 16.1C21.55 16.79 21.22 17.61 21.22 18.57C21.22 17.61 20.89 16.79 20.24 16.1C19.58 15.42 18.78 15.05 17.83 15.01Z" fill="#BFBFBF"/>
</svg>
