<svg width="512" height="512" viewBox="0 0 512 512" fill="none" xmlns="http://www.w3.org/2000/svg">
<g clip-path="url(#clip0_17_15)">
<path d="M256 431C352.65 431 431 352.65 431 256C431 159.35 352.65 81 256 81C159.35 81 81 159.35 81 256C81 352.65 159.35 431 256 431Z" fill="#F5A300"/>
<path d="M266 10C266 4.47715 261.523 0 256 0C250.477 0 246 4.47715 246 10V50C246 55.5228 250.477 60 256 60C261.523 60 266 55.5228 266 50V10Z" fill="#F5A300"/>
<path d="M89.1228 74.9808C85.2176 71.0756 78.8859 71.0756 74.9807 74.9808C71.0754 78.886 71.0754 85.2177 74.9807 89.1229L103.265 117.407C107.17 121.312 113.502 121.312 117.407 117.407C121.312 113.502 121.312 107.17 117.407 103.265L89.1228 74.9808Z" fill="#F5A300"/>
<path d="M10 246C4.47715 246 0 250.477 0 256C0 261.523 4.47715 266 10 266H50C55.5228 266 60 261.523 60 256C60 250.477 55.5228 246 50 246H10Z" fill="#F5A300"/>
<path d="M74.9806 422.877C71.0754 426.783 71.0754 433.114 74.9806 437.02C78.8859 440.925 85.2175 440.925 89.1228 437.02L117.407 408.735C121.312 404.83 121.312 398.498 117.407 394.593C113.502 390.688 107.17 390.688 103.265 394.593L74.9806 422.877Z" fill="#F5A300"/>
<path d="M246 502C246 507.523 250.477 512 256 512C261.523 512 266 507.523 266 502V462C266 456.477 261.523 452 256 452C250.477 452 246 456.477 246 462V502Z" fill="#F5A300"/>
<path d="M422.878 437.019C426.783 440.924 433.115 440.924 437.02 437.019C440.925 433.114 440.925 426.782 437.02 422.877L408.735 394.593C404.83 390.688 398.499 390.688 394.593 394.593C390.688 398.498 390.688 404.83 394.593 408.735L422.878 437.019Z" fill="#F5A300"/>
<path d="M502 266C507.523 266 512 261.523 512 256C512 250.477 507.523 246 502 246H462C456.477 246 452 250.477 452 256C452 261.523 456.477 266 462 266H502Z" fill="#F5A300"/>
<path d="M437.019 89.1226C440.924 85.2174 440.924 78.8857 437.019 74.9805C433.114 71.0752 426.782 71.0752 422.877 74.9805L394.593 103.265C390.687 107.17 390.687 113.502 394.593 117.407C398.498 121.312 404.83 121.312 408.735 117.407L437.019 89.1226Z" fill="#F5A300"/>
</g>
<defs>
<clipPath id="clip0_17_15">
<rect width="512" height="512" fill="white"/>
</clipPath>
</defs>
</svg>
